<svg width="762" height="410" viewBox="0 0 762 410" fill="none" xmlns="http://www.w3.org/2000/svg">
<g clip-path="url(#clip0)">
<path d="M752.2 410.3H720.2V294.4C720.1 294.8 720 295.1 719.9 295.5C718.9 298.5 718.1 301.1 717.4 303.3V303.4L696.7 368.2H653.2L632 302.9C631.3 300.7 630.4 298.2 629.5 295.3L629.1 294.2V410.4H596.9V248.8H647.4L674.4 336.8L702.3 248.8H752.1V410.3H752.2ZM523.4 410.3H488.2L475.1 368.1H426.6L414.1 410.3H379.2L380.5 406.4L431.6 248.8H470.6L471.3 250.9L523.4 410.3ZM305.9 410.3H204.6V248.8H304V279.1H236.7V314H293.1V343.8H236.7V380H305.9V410.3ZM78.6 410.3H46.6V278.9H0V248.8H125.6V278.9H78.6V410.3ZM435.3 338.7H466.1L450.7 285.9L435.3 338.7Z" fill="white" fill-opacity="0.9"/>
<path d="M471.6 165H439.4V3.5H471.6V67H490.9L530.7 0H568L519.1 81.7L568 162.9H532.7L490.9 97.3H471.6V165Z" fill="white" fill-opacity="0.9"/>
<path d="M277.6 167.8C268.3 167.8 260.1 167 253.4 165.4C246.5 163.9 240.7 161.2 236.3 157.5C231.8 153.6 228.5 148.7 226.3 142.7V142.6C224.3 136.7 223.3 129.5 223.3 121.2C223.3 117.1 223.7 113.2 224.5 109.6C225.4 105.8 226.9 102.1 229.1 98.6C231.3 95 234.4 91.5 238.1 88C241.2 85.1 245.1 81.9 249.6 78.7C246.8 75.5 244.4 72.5 242.4 69.8C239.9 66.3 237.8 62.9 236.2 59.8C234.6 56.5 233.5 53.2001 232.9 49.9001C232.3 46.6001 232 43 232 39.2001C232 34.4001 232.5 29.7 233.5 25.3C234.5 20.5 236.7 16.1 239.9 12.4C243.1 8.70005 247.7 5.70005 253.5 3.50005C259.3 1.30005 266.9 0.300049 276.2 0.300049C285.3 0.300049 292.9 1.40005 298.7 3.50005C304.7 5.70005 309.5 8.70005 313.1 12.6C316.6 16.4 319.1 20.8 320.3 25.9C321.6 30.6 322.2 35.6 322.2 40.8C322.2 46.1 321.8 50.6 321.1 54.3C320.4 58.1 318.8 61.7 316.3 65.1C314 68.2 310.8 71.4 306.7 74.5C303.4 77 299.2 80 294.2 83.4L314 105.3C314.4 103.7 314.6 102.1 314.9 100.6C315.5 97.3 315.9 94.8 316.1 93.2L316.4 90.6H343L342.8 93.8C342.7 96.2001 342.3 99 341.9 102.1C341.5 105.1 341 108.3 340.3 111.7C339.7 115 339 118.4 338.2 121.8C337.5 124.6 336.8 127.2 336 129.7L368.5 165.2H329.4L319.1 154.2C313.3 158.9 307.1 162.4 300.5 164.7C293.3 166.6 285.5 167.8 277.6 167.8ZM269.4 99.9C266.5 102.1 264.1 104.1 262.4 105.9C260.3 108 258.6 109.9 257.5 111.6C256.6 113.2 255.9 114.8 255.6 116.3C255.3 118 255.2 119.8 255.2 121.9C255.2 125 255.5 127.7 256.2 130C256.8 131.9 257.9 133.5 259.4 134.8C261 136.1 263.2 137.1 266.1 137.8C269.3 138.5 273.4 138.9 278.3 138.9C280.1 138.9 282.1 138.8 284.2 138.6C286.2 138.3 288.3 137.9 290.4 137.3C292.5 136.7 294.6 135.9 296.6 134.8C297.8 134.2 298.9 133.5 299.9 132.8L269.4 99.9ZM276.9 26.5C273.6 26.5 270.9 26.8 268.9 27.4C267.1 27.9 265.7 28.7001 264.7 29.7001C263.8 30.7001 263.1 32 262.7 33.7001C262.2 35.6001 262 38 262 40.8C262 42.1 262.3 43.5 263 45.1C263.7 46.8 264.7 48.6 266 50.6C267.4 52.6 269 54.8 270.8 57C272.1 58.6 273.6 60.3001 275.1 61.9001C278.5 59.6001 281.3 57.6001 283.4 55.9001C286 54 287.9 52.1 289.2 50.5C290.4 49 291.1 47.6001 291.5 46.2001V46.1C291.9 44.6 292.2 42.7001 292.2 40.7001C292.2 37.8 291.9 35.3001 291.4 33.4001C291 31.7001 290.3 30.4 289.3 29.4C288.3 28.4 286.9 27.7 285 27.3C283 26.7 280.3 26.5 276.9 26.5Z" fill="white" fill-opacity="0.9"/>
<path d="M53.2 165H21V3.5H53.2V67H72.5L112.3 0H149.7L100.8 81.7L149.7 162.9H114.4L72.5 97.3H53.2V165Z" fill="white" fill-opacity="0.9"/>
<path d="M756 81L716.5 148H637.5L598 81L637.5 14L716.5 14L756 81Z" fill="white" fill-opacity="0.9"/>
</g>
<defs>
<clipPath id="clip0">
<rect width="762" height="410" fill="white"/>
</clipPath>
</defs>
</svg>
