<svg width="55" height="46" viewBox="0 0 55 46" fill="none" xmlns="http://www.w3.org/2000/svg">
<path id="telegramm_red copy" fill-rule="evenodd" clip-rule="evenodd" d="M29.3198 36.0503C27.2742 38.0996 25.2506 40.1128 23.2444 42.1441C22.543 42.8544 21.754 43.2466 20.7479 43.1908C20.0627 43.1529 19.6781 42.8399 19.4681 42.1684C17.9328 37.2592 16.3725 32.3583 14.8442 27.4468C14.6953 26.9686 14.471 26.7389 14.0039 26.5919C10.3839 25.4524 6.77109 24.2882 3.16291 23.1097C2.62867 22.9352 2.08776 22.7109 1.62424 22.3943C0.817497 21.8434 0.702366 20.9675 1.43907 20.3333C2.11978 19.7472 2.92679 19.2565 3.75355 18.9199C8.32775 17.0577 12.9252 15.2558 17.5144 13.4324C28.5538 9.04634 39.5935 4.66067 50.6322 0.272464C52.7483 -0.568788 54.3926 0.597911 54.1943 2.94702C54.0638 4.49556 53.6721 6.02389 53.3579 7.55265C50.9117 19.4518 48.4559 31.3488 46.0033 43.2466C45.9985 43.2695 45.997 43.293 45.9919 43.3157C45.3922 46.0376 43.4712 46.7818 41.2808 45.1225C37.4785 42.2422 33.6857 39.3487 29.8883 36.4616C29.7087 36.3251 29.523 36.197 29.3198 36.0503ZM19.9117 38.7369C19.9725 38.458 20.0146 38.3292 20.027 38.1978C20.275 35.5252 20.5343 32.8536 20.7539 30.1787C20.8028 29.5851 20.9798 29.1467 21.439 28.7345C27.3626 23.4164 33.2679 18.0778 39.1779 12.7446C40.8591 11.2275 42.5471 9.718 44.212 8.18325C44.3868 8.02213 44.4247 7.71249 44.5263 7.47178C44.2691 7.39893 43.9808 7.21426 43.7612 7.27549C43.2538 7.417 42.7424 7.6189 42.2973 7.89883C33.5102 13.4267 24.7346 18.9723 15.9473 24.4996C15.5002 24.7808 15.3726 25.0122 15.5519 25.5509C16.9433 29.7313 18.2944 33.9252 19.66 38.1142C19.7135 38.2784 19.789 38.4353 19.9117 38.7369Z" fill="#2A2A2A"/>
</svg>
