<svg width="78" height="42" viewBox="0 0 78 42" fill="none" xmlns="http://www.w3.org/2000/svg">
<path id="vk_red copy" fill-rule="evenodd" clip-rule="evenodd" d="M37.9057 41.8263H42.537C42.537 41.8263 43.9348 41.6836 44.6488 40.9678C45.3081 40.308 45.2862 39.0725 45.2862 39.0725C45.2862 39.0725 45.1959 33.2873 48.0792 32.4339C50.9214 31.5933 54.5733 38.0255 58.4414 40.499C61.3684 42.3714 63.5924 41.9613 63.5924 41.9613L73.9382 41.8263C73.9382 41.8263 79.3491 41.5155 76.7831 37.5542C76.5725 37.2307 75.2868 34.6222 69.0908 29.2649C62.6021 23.6581 63.472 24.565 71.2874 14.8644C76.0445 8.95948 77.9485 5.35234 77.3521 3.8086C76.7859 2.3362 73.2871 2.72595 73.2871 2.72595L61.6365 2.79218C61.6365 2.79218 60.772 2.68265 60.1319 3.03928C59.5082 3.38828 59.1061 4.20345 59.1061 4.20345C59.1061 4.20345 57.2596 8.77352 54.8031 12.6609C49.6165 20.8636 47.5403 21.2966 46.6923 20.7871C44.7199 19.6 45.2123 16.0209 45.2123 13.4761C45.2123 5.52556 46.509 2.21137 42.6929 1.35289C41.4264 1.07013 40.4935 0.881622 37.2547 0.851053C33.0994 0.810294 29.5815 0.861243 27.59 1.77067C26.2633 2.37441 25.2402 3.72199 25.8639 3.79841C26.6326 3.89522 28.3779 4.23657 29.3025 5.40838C30.4952 6.92155 30.4541 10.3173 30.4541 10.3173C30.4541 10.3173 31.1407 19.6739 28.8511 20.8381C27.2809 21.6329 25.128 20.0076 20.5023 12.5641C18.1333 8.75314 16.3442 4.53971 16.3442 4.53971C16.3442 4.53971 15.9996 3.75256 15.3841 3.32969C14.6373 2.82021 13.595 2.65717 13.595 2.65717L2.52433 2.72595C2.52433 2.72595 0.86386 2.76926 0.253836 3.44178C-0.290535 4.04042 0.210067 5.27846 0.210067 5.27846C0.210067 5.27846 8.87624 24.1599 18.6886 33.6745C27.6885 42.3994 37.9057 41.8263 37.9057 41.8263Z" fill="#2A2A2A"/>
</svg>
